<svg id="visual" viewBox="0 0 900 600" width="900" height="600" xmlns="http://www.w3.org/2000/svg" xmlns:xlink="http://www.w3.org/1999/xlink" version="1.1"><path d="M0 121L82 127L164 145L245 67L327 151L409 73L491 169L573 151L655 127L736 127L818 85L900 79L900 0L818 0L736 0L655 0L573 0L491 0L409 0L327 0L245 0L164 0L82 0L0 0Z" fill="#00cc8e"></path><path d="M0 217L82 241L164 235L245 205L327 253L409 259L491 415L573 313L655 307L736 289L818 235L900 241L900 77L818 83L736 125L655 125L573 149L491 167L409 71L327 149L245 65L164 143L82 125L0 119Z" fill="#00b98a"></path><path d="M0 337L82 343L164 337L245 253L327 361L409 325L491 475L573 409L655 373L736 331L818 295L900 283L900 239L818 233L736 287L655 305L573 311L491 413L409 257L327 251L245 203L164 233L82 239L0 215Z" fill="#00a784"></path><path d="M0 535L82 517L164 535L245 553L327 565L409 505L491 553L573 559L655 499L736 505L818 505L900 505L900 281L818 293L736 329L655 371L573 407L491 473L409 323L327 359L245 251L164 335L82 341L0 335Z" fill="#00957c"></path><path d="M0 601L82 601L164 601L245 601L327 601L409 601L491 601L573 601L655 601L736 601L818 601L900 601L900 503L818 503L736 503L655 497L573 557L491 551L409 503L327 563L245 551L164 533L82 515L0 533Z" fill="#038373"></path></svg>